<svg xmlns="http://www.w3.org/2000/svg" width="92" height="20" viewBox="0 0 92 20">
  <g id="Group_48" data-name="Group 48" transform="translate(-10481.038 -1787.255)">
    <path id="Path_162" data-name="Path 162" fill="#00b4ff" fill-rule="evenodd" d="M10531.279,1792.738h.2v12.041a2.773,2.773,0,0,1-2.765,2.766h-.333v-11.913A2.9,2.9,0,0,1,10531.279,1792.738Z" transform="translate(-2.687 -0.29)"/>
    <path id="Path_163" data-name="Path 163" fill="#00b4ff" fill-rule="evenodd" d="M10514.8,1787.255h.2v11.393l5.362-5.371a2.874,2.874,0,0,1,4.094.027l.143.147-6.1,6.109a2.8,2.8,0,0,1-.3.26,2.852,2.852,0,0,1,.391.329l6.007,6.016-.232.24a2.745,2.745,0,0,1-3.911.026l-5.455-5.464v3.483a2.8,2.8,0,0,1-2.767,2.807h-.33v-17.063A2.924,2.924,0,0,1,10514.8,1787.255Z" transform="translate(-1.793 0)"/>
    <path id="Path_164" data-name="Path 164" fill="#00b4ff" fill-rule="evenodd" d="M10481.038,1804.52v-.206l.035-2.314a4.44,4.44,0,0,1,.049-.881v-.158h.035a2.839,2.839,0,0,1,2.7-2.145h6.454a.792.792,0,0,0,.522-.676v-1.821a.55.55,0,0,0-.43-.442h-6.472a2.893,2.893,0,0,1-2.869-2.933v-.206h10.225a2.915,2.915,0,0,1,2.663,3.2v11.507h-.331a2.741,2.741,0,0,1-2.01-.885,2.848,2.848,0,0,1-2.175.981l-5.521-.053a2.938,2.938,0,0,1-2.785-2.2h-.013v-.051a2.941,2.941,0,0,1-.084-.717Zm9.8-3.609a2.792,2.792,0,0,1-2.16,1.01l-3.851-.01a.507.507,0,0,0-.542.519l-.011,1.566c0,.5.368.442.607.442h5.467a.5.5,0,0,0,.489-.487Z" transform="translate(0 -0.29)"/>
    <circle id="Ellipse_10" data-name="Ellipse 10" fill="#00b4ff" cx="1.838" cy="1.838" r="1.838" transform="translate(10525.373 1787.454)"/>
    <path id="Path_165" data-name="Path 165" fill="#00b4ff" fill-rule="evenodd" d="M10498.4,1803.6l6.045-7.735h-4.652a2.893,2.893,0,0,1-2.846-2.922l0-.2h10.26c2.471,0,2.7,1.544,1.3,3.333l-6.518,8.334,4.686-.019a2.859,2.859,0,0,1,2.8,2.827l0,.331h-10.125c-1.295,0-1.879-.364-2.139-.816C10496.689,1805.82,10497.486,1804.767,10498.4,1803.6Z" transform="translate(-0.922 -0.29)"/>
    <path id="Path_166" data-name="Path 166" fill="#00b4ff" fill-rule="evenodd" d="M10548.859,1797.755h-7.04a2.014,2.014,0,0,0-2.014,2.014v5.993a2.014,2.014,0,0,0,2.014,2.013h7.04a1.734,1.734,0,0,0-1.734-1.735h-4.539a.946.946,0,0,1-.946-.946v-4.57a.945.945,0,0,1,.946-.945h4.539a1.734,1.734,0,0,0,1.734-1.735Z" transform="translate(-3.381 -0.52)"/>
    <g id="Group_47" data-name="Group 47" transform="translate(10546.91 1797.235)">
      <g id="Group_46" data-name="Group 46">
        <path id="Path_167" data-name="Path 167" fill="#00b4ff" d="M10558.729,1799.646a.639.639,0,0,1,.639.637v4.962a.639.639,0,0,1-.639.637h-5.255a.639.639,0,0,1-.639-.637v-4.962a.639.639,0,0,1,.639-.637h5.255m0-1.891h-5.255a2.529,2.529,0,0,0-2.529,2.529v4.962a2.529,2.529,0,0,0,2.529,2.529h5.255a2.53,2.53,0,0,0,2.53-2.529v-4.962a2.53,2.53,0,0,0-2.53-2.529Z" transform="translate(-10550.945 -1797.755)"/>
      </g>
    </g>
    <path id="Path_168" data-name="Path 168" fill="#00b4ff" d="M10564.426,1800.236v7.538h.293a1.713,1.713,0,0,0,1.713-1.713v-5.673a.808.808,0,0,1,.809-.809h2.277a.81.81,0,0,1,.811.809v5.673a1.712,1.712,0,0,0,1.713,1.713h.406v-7.429a.81.81,0,0,1,.811-.809h1.99a.808.808,0,0,1,.809.809v5.716a1.713,1.713,0,0,0,1.713,1.713h.121v-7.538a2.48,2.48,0,0,0-2.48-2.481h-2.951a.943.943,0,0,0-.623.234l-.363.316-.361-.316a.947.947,0,0,0-.623-.234h-3.582A2.481,2.481,0,0,0,10564.426,1800.236Z" transform="translate(-4.853 -0.52)"/>
    <circle id="Ellipse_11" data-name="Ellipse 11" fill="#00b4ff" cx="1.347" cy="1.347" r="1.347" transform="translate(10531.376 1804.546)"/>
  </g>
</svg>
