<svg xmlns="http://www.w3.org/2000/svg" width="110.8" height="129.11" viewBox="0 0 110.8 129.11">
  <g id="Logo" transform="translate(-1046 -16.89)">
    <path id="Shape_18" d="M1112.6,145.4l2.3-.9-.3.7-2.1.8Zm-7.9-1.1.5-1.2,1.1.5.4-.9,1.2.6-.5,1.2-1.1-.5-.4.9Zm-21.8,0,.5-1.2,1.1.5.4-.9,1.2.6-.5,1.2-1.1-.5-.4.9Zm-30.6,0,.5-1.2,1.1.5.4-.9,1.2.6-.5,1.2-1.1-.5-.4.9Zm94.4-.5.5-1.1,1.1.5-.4,1.1Zm-33.7,0,.5-1.1,1.1.5-.4,1.1Zm23.7,0,.5-1.1,1.1.5-.4,1.1Zm-65.2-.2,2.3-.9-.3.7-2.1.8Zm45.7.2a5.548,5.548,0,0,1-.8-.6l.4-.9a.758.758,0,0,0,.4.2c.1,0,.3.1.4.1a2.354,2.354,0,0,0,.8-.2,1.024,1.024,0,0,0,.6-.5h-.6a.908.908,0,0,1-.7-.3.844.844,0,0,1-.2-.7.9.9,0,0,1,.1-.5,4.332,4.332,0,0,1,.1-.5c.1-.2.1-.4.2-.6s.1-.4.2-.5a2.389,2.389,0,0,1,1.4.5,1.606,1.606,0,0,1,.5,1.1h1.9a.683.683,0,0,0-.7.7.683.683,0,0,1,.7-.7h2.4a.749.749,0,0,0,.5-.1c.2,0,.4-.1.6-.1a1.421,1.421,0,0,1,.6-.2c-.1,0-.2-.1-.3-.1s-.2-.1-.4-.1-.2-.1-.4-.1h-.2c-.1,0-.2.1-.3.1a.52.52,0,0,0-.2.4l-1-.6c.1-.2.2-.5.3-.7a1.378,1.378,0,0,1,.3-.4c.1-.1.2-.2.3-.2s.3-.1.4-.1a1.482,1.482,0,0,1,.7.1c.3.1.5.2.8.3s.6.2,1,.3a5.02,5.02,0,0,0,1.2.2l-.4,1.5a1.95,1.95,0,0,0-.8.1,2.011,2.011,0,0,0-.8.4,5.743,5.743,0,0,1-.7.4l-.6.3c-.2.1-.5.1-.7.2-.4,0-.7.1-1.1.1h-3.4c-.1.3-.2.5-.3.8a3.04,3.04,0,0,1-.5.7,2.651,2.651,0,0,1-.6.5,1.884,1.884,0,0,1-.8.2c.2-.3-.1-.4-.3-.5Zm-30,0a5.548,5.548,0,0,1-.8-.6l.4-.9a.758.758,0,0,0,.4.2c.1,0,.3.1.4.1a1.884,1.884,0,0,0,.8-.2c.3-.1.5-.4.7-.6a.367.367,0,0,1-.3.1h-.3a.6.6,0,0,1-.4-.1c-.1,0-.2-.1-.3-.2s-.2-.2-.2-.3-.1-.2-.1-.4a.9.9,0,0,1,.1-.5.764.764,0,0,1,.2-.5c.1-.2.1-.4.2-.5a1.056,1.056,0,0,0,.2-.5,1.929,1.929,0,0,1,1,.3,2.651,2.651,0,0,1,.6.5,4.888,4.888,0,0,1,.3.7,2.2,2.2,0,0,1,.1.8,4.254,4.254,0,0,1-.2,1.1,4.672,4.672,0,0,1-.5,1,2.336,2.336,0,0,1-.7.7,1.689,1.689,0,0,1-1,.3,1.331,1.331,0,0,0-.6-.5Zm52.3,0a2.407,2.407,0,0,1-.8-.6l.4-.9a.758.758,0,0,0,.4.2c.1,0,.3.1.4.1a1.268,1.268,0,0,0,.6-.1,2.186,2.186,0,0,0,.5-.3,1,1,0,0,0,.4-.5l.3-.6a3.079,3.079,0,0,1-.5-1.2l1.2-.8a1.776,1.776,0,0,0,.4,1,1.27,1.27,0,0,0,.7.4h1.2a.683.683,0,0,0-.7.7.683.683,0,0,1,.7-.7h2.4a1.268,1.268,0,0,0,.6-.1c.2,0,.4-.1.6-.1.2-.1.4-.1.5-.2l-.6-.2-.4-.1h-.3c-.1,0-.2.1-.3.1a.52.52,0,0,0-.2.4l-1-.6c.1-.2.2-.5.3-.7a1.378,1.378,0,0,1,.3-.4c.1-.1.2-.2.3-.2s.3-.1.4-.1a1.7,1.7,0,0,1,.7.1,6.884,6.884,0,0,0,.8.3c.3.1.6.2,1,.3l1.2.3-.5,1.4h2.4a.683.683,0,0,0-.7.7.683.683,0,0,1,.7-.7h2.6l-.4-2,1.4-.5c0,.2.1.4.1.6s.1.4.1.7.1.4.1.6v.5a1.884,1.884,0,0,1-.2.8,1.205,1.205,0,0,1-.5.5,1.854,1.854,0,0,1-.7.2c-.3,0-.6.1-.9.1h-3.1a5.068,5.068,0,0,1-1.3-.2,1.55,1.55,0,0,1-.8-.8,1.755,1.755,0,0,1-.5.4c-.2.1-.4.3-.6.3a2.92,2.92,0,0,1-.9.2,4.868,4.868,0,0,1-1.2.1h-3.2c-.2,0-.3-.1-.4-.1-.1.3-.2.5-.3.8a2.617,2.617,0,0,1-1.2,1.2,2.92,2.92,0,0,1-.9.2,1.333,1.333,0,0,0-.6-.5Zm-48.7,0a2.407,2.407,0,0,1-.8-.6l.4-.9a.758.758,0,0,0,.4.2.6.6,0,0,0,.4.1,1.136,1.136,0,0,0,.8-.3,3.451,3.451,0,0,0,.8-.9,3.114,3.114,0,0,0-.7-.9l.7-1.4a6.473,6.473,0,0,1,.8.9,2.016,2.016,0,0,1,.3,1.1,2.92,2.92,0,0,1-.2.9,2.622,2.622,0,0,1-.5.9,2.7,2.7,0,0,1-.8.7,1.929,1.929,0,0,1-1,.3.662.662,0,0,1-.6-.1Zm-43.6,0-.6-.3a1,1,0,0,1-.4-.5,1.884,1.884,0,0,1-.2-.8,1.269,1.269,0,0,1,.1-.6,1.422,1.422,0,0,1,.2-.6c.1-.2.1-.4.2-.6s.1-.4.2-.6l.8.5c0,.1-.1.2-.1.3s-.1.2-.1.3-.1.2-.1.3v.3a.367.367,0,0,0,.1.3l.2.2a.367.367,0,0,0,.3.1h.6a.6.6,0,0,0,.4-.1c.1,0,.3-.1.4-.1s.2-.1.3-.1l-.5-2.2,1.2-.6c0,.2.1.4.1.6a4.332,4.332,0,0,0,.1.5h2.1a.683.683,0,0,0-.7.7.683.683,0,0,1,.7-.7h2.6l-.4-2,1.4-.5c0,.2.1.4.1.6s.1.4.1.7.1.4.1.6v.5a1.884,1.884,0,0,1-.2.8,1.205,1.205,0,0,1-.5.5,1.854,1.854,0,0,1-.7.2c-.3,0-.6.1-.9.1h-3.3c-.1,0-.2-.1-.3-.2v.3a2.354,2.354,0,0,1-.2.8l-.6.6a2.994,2.994,0,0,1-.8.4,2.769,2.769,0,0,1-.9.1,1.511,1.511,0,0,1-.8.2Zm9.8-2.1c.2,0,.4-.1.6-.1a1.421,1.421,0,0,0,.6-.2l.6-.3c-.1-.3-.2-.7-.3-1a5.547,5.547,0,0,0-.6-.8c-.2-.2-.4-.5-.6-.7a2.651,2.651,0,0,0-.6-.5l.5-1.4c.5.5.8.9,1.1,1.2a5.49,5.49,0,0,1,.7.9,3.371,3.371,0,0,1,.5,1.7l.2-.2c.1-.1.1-.2.2-.3l-.2-3.4,1.4-.7v4.3a1.483,1.483,0,0,0,.7.1h1.2a.683.683,0,0,0-.7.7.683.683,0,0,1,.7-.7h2.6l-.4-2,1.4-.5c0,.2.1.4.1.6s.1.4.1.7.1.4.1.6v.5a1.884,1.884,0,0,1-.2.8,1.205,1.205,0,0,1-.5.5,1.854,1.854,0,0,1-.7.2c-.3,0-.6.1-.9.1h-2.8a2.2,2.2,0,0,1-.8-.1,1,1,0,0,1-.5-.4c-.2.2-.3.4-.5.5-.2.2-.4.3-.6.5a5.931,5.931,0,0,1-.8.4,2.92,2.92,0,0,1-.9.2Zm18.2-5.1,1.3-.7v5.4l-1.3.7Zm-7.8,0,1.3-.7v5.4l-1.3.7Zm10.5,5.4a.707.707,0,0,1-.6-.6,1.7,1.7,0,0,1-.1-.7v-.8l1.1-.4c0,.6.1.9.4.9h.8a.368.368,0,0,0,.3-.1l-.4-2,1.3-.9.2,1.8a1.854,1.854,0,0,0,.2.7c.1.1.1.3.2.4l.2.2h1.4a.683.683,0,0,0-.7.7.683.683,0,0,1,.7-.7h2.6l-.4-2,1.4-.5c0,.2.1.4.1.6s.1.4.1.7.1.4.1.6v.5a1.884,1.884,0,0,1-.2.8,1.205,1.205,0,0,1-.5.5,1.854,1.854,0,0,1-.7.2c-.3,0-.6.1-.9.1h-3.3a.6.6,0,0,1-.4-.1c-.1,0-.2-.1-.3-.2l-.3-.3a1.379,1.379,0,0,1-.4.3c-.2.1-.3.2-.5.2a.9.9,0,0,1-.5.1,4.332,4.332,0,0,0-.5.1c-.2,0-.3-.1-.4-.1Zm35.2,0a3.4,3.4,0,0,1-1-.1c-.3-.1-.5-.2-.8-.3a1.024,1.024,0,0,1-.5-.6,2.921,2.921,0,0,1-.2-.9v-.8c0-.2.1-.3.1-.5l1.1-.2v.6a.9.9,0,0,0,.1.5c0,.1.1.2.2.3a.758.758,0,0,0,.4.2c.2,0,.5.1.7.1h2.3l-.4-2.1,1.4-.4c0,.3.1.5.1.7s.1.4.1.6a4.332,4.332,0,0,0,.1.5v.5a1.6,1.6,0,0,1-.8,1.4,4.116,4.116,0,0,1-.8.3,3.4,3.4,0,0,1-1,.1Zm-14.5,0h-.2a3.4,3.4,0,0,1-1-.1c-.3-.1-.5-.2-.8-.3a1.024,1.024,0,0,1-.5-.6,2.921,2.921,0,0,1-.2-.9v-.4c0-.2.1-.3.1-.5a4.332,4.332,0,0,1,.1-.5l1.1-.2a.367.367,0,0,1-.1.3v.5a.778.778,0,0,0,.3.7,1.389,1.389,0,0,0,1.1.2h1.9a1.268,1.268,0,0,0,.6-.1,4.348,4.348,0,0,1-.4-.7c-.2-.2-.3-.5-.5-.7s-.4-.5-.6-.7l.5-1.7,3.3-.7-.4,1.5-2.1.3c.1.1.2.3.4.5a2.652,2.652,0,0,0,.5.6c.2.2.3.4.5.6s.3.4.5.5.3.3.5.4a.749.749,0,0,0,.5.1h1.2a.683.683,0,0,0-.7.7.683.683,0,0,1,.7-.7h2.6l-.4-2,1.4-.5c0,.2.1.4.1.6s.1.4.1.7.1.4.1.6v.5a1.884,1.884,0,0,1-.2.8,1.205,1.205,0,0,1-.5.5,1.854,1.854,0,0,1-.7.2c-.3,0-.6.1-.9.1h-2.8a.9.9,0,0,1-.5-.1c-.1-.1-.3-.1-.4-.2s-.3-.2-.4-.4c-.1-.1-.2-.3-.4-.4a1.839,1.839,0,0,1-1,1,1.854,1.854,0,0,1-.7.2c-.3,0-.6.1-.8.1h-.5Zm37.4-.1h-1.9c-.2,0-.3-.1-.5-.1-.1-.1-.3-.2-.4-.3a2.19,2.19,0,0,1-.3-.5l-.3.7c-.3,0-.6-.1-.8-.1a1.421,1.421,0,0,1-.6-.2.781.781,0,0,1-.4-.4,1.269,1.269,0,0,1-.1-.6,1.884,1.884,0,0,1,.2-.8,1.47,1.47,0,0,1,.5-.6c.2-.2.4-.3.6-.5a2.186,2.186,0,0,0,.5-.3v-.9l1.4.3v2.8h2a.683.683,0,0,0-.7.7.683.683,0,0,1,.7-.7h2.6l-.4-2,1.4-.5c0,.2.1.4.1.6s.1.4.1.7.1.4.1.6v.5a1.884,1.884,0,0,1-.2.8,1.205,1.205,0,0,1-.5.5,1.854,1.854,0,0,1-.7.2c-.3,0-.6.1-.9.1Zm-4.2-1.9,1,.1v-.9Zm-59.7,1.9a1.7,1.7,0,0,1-.7-.1,1.381,1.381,0,0,1-.4-.3.764.764,0,0,1-.2-.5c0-.2-.1-.4-.1-.6v-.6l1-.4v.2c0,.2,0,.3.2.4s.3.2.5.1h.6a.368.368,0,0,0,.3-.1c.1,0,.1,0,.2-.1-.1-.2-.1-.3-.2-.5s-.2-.3-.3-.5c-.1-.1-.2-.3-.4-.4a.764.764,0,0,0-.5-.2l.4-1.2a.215.215,0,0,1,.2-.2l.2-.1a.908.908,0,0,1,.7.3,3.04,3.04,0,0,1,.5.7,2.935,2.935,0,0,1,.3,1,3.084,3.084,0,0,1,.1,1,1.2,1.2,0,0,1-.2.8,2.09,2.09,0,0,1-.4.6.908.908,0,0,1-.7.3,2.769,2.769,0,0,1-.9.1Zm-25.1-2.7.5-1.1,1.1.5-.4,1.1Zm106.4-2,.5-1.2,1.1.5.4-.9,1.2.6-.5,1.2-1.1-.5-.4.9Zm-89.3,0,.5-1.1,1.1.5-.4,1.1Zm59.9-.4.5-1.1,1.1.5-.4,1.1Zm-57.9-1.4c0-.1.1-.2.1-.3.1-.1.1-.3.2-.4s.2-.2.2-.3c.1-.1.1-.1.2-.1h.2c.1,0,.2.1.3.1s.3.1.4.1h.5a1.7,1.7,0,0,0,.7-.1,1.445,1.445,0,0,0,.7-.2l-.2,1.1a4.876,4.876,0,0,1-.7.3,2.2,2.2,0,0,1-.8.1h-.6c-.2,0-.3-.1-.5-.1l-.1.5Z" fill="#5d597a"/>
    <path id="Shape_20" d="M1139.7,132.2a1.155,1.155,0,0,1-1.2-1.2h0a1.155,1.155,0,0,1,1.2-1.2h8.4a1.155,1.155,0,0,1,1.2,1.2h0a1.155,1.155,0,0,1-1.2,1.2h-8.4Zm-65.3,0a1.2,1.2,0,0,1,0-2.4h8.4a1.2,1.2,0,0,1,0,2.4Zm61.1-5.5a1.2,1.2,0,0,1,0-2.4h9.6a4.1,4.1,0,0,0,4.2-3.9v-5.8a1.2,1.2,0,1,1,2.4,0h0v5.5a6.45,6.45,0,0,1-6.1,6.7h-.5Zm-36.9,0a1.2,1.2,0,0,1,0-2.4H1129a4.051,4.051,0,0,0,4.1-3.2,1.2,1.2,0,0,1,2.4.2v.1a6.386,6.386,0,0,1-6.5,5.3Zm-10.7,0a1.2,1.2,0,0,1,0-2.4h4.2a4.1,4.1,0,0,0,4.2-3.9V120a4.225,4.225,0,0,0-4.2-4.2h-6.9V120c0,2.3-1.4,6.7-6.6,6.7h-4.2a1.2,1.2,0,0,1,0-2.4h4.2a4.032,4.032,0,0,0,4.2-3.9v-7.1h9.3a6.616,6.616,0,0,1,6.6,6.7c0,2.3-1.4,6.7-6.6,6.7Zm-26.6,0V104.9a1.2,1.2,0,1,1,2.4,0h0v19.4h4.2a4.032,4.032,0,0,0,4.2-3.9v-4.6a1.2,1.2,0,1,1,2.4,0h0V120c0,2.3-1.4,6.7-6.6,6.7Zm-13.7,0a1.2,1.2,0,0,1,0-2.4h4.2c4,0,4.2-3.8,4.2-4.2v-4.2a1.2,1.2,0,1,1,2.4,0v4.2c0,2.3-1.4,6.7-6.6,6.7Zm106.7-2.4V104.9a1.155,1.155,0,0,1,1.2-1.2h0a1.155,1.155,0,0,1,1.2,1.2h0v19.4a1.155,1.155,0,0,1-1.2,1.2,1.216,1.216,0,0,1-1.2-1.2Zm-81-15.1h0a1.155,1.155,0,0,1-1.2-1.2h0v-3a1.155,1.155,0,0,1,1.2-1.2h0a1.155,1.155,0,0,1,1.2,1.2h0v3a1.49,1.49,0,0,1-1.2,1.2Z" fill="#38a063"/>
    <path id="Shape_19" d="M1169.316,149.754a32.163,32.163,0,0,1-1.316-9.706h0a35.73,35.73,0,0,1,3.948-4.771l2.961-2.961h0a40.972,40.972,0,0,1,53.632,0h0a25.168,25.168,0,0,1,2.961,2.961,55.25,55.25,0,0,1,3.948,4.771,43.888,43.888,0,0,1-6.91,7.732,40.966,40.966,0,0,1-36.852,8.719,3.006,3.006,0,0,1-2.139-3.619,2.26,2.26,0,0,1,.823-1.316,3.376,3.376,0,0,1,2.8-.823,35.2,35.2,0,0,0,34.877-10.694,34.927,34.927,0,0,0-49.355-3.126,28.048,28.048,0,0,0-3.126,3.126c-.494.658-1.151,1.316-1.645,1.974a32.387,32.387,0,0,0,.987,5.758,27.82,27.82,0,0,0,44.584,13.984,3.009,3.009,0,0,1,3.948.165,3.08,3.08,0,0,1,0,4.277l-.164.165a33.307,33.307,0,0,1-21.552,7.732A34.008,34.008,0,0,1,1169.316,149.754Zm28.955-7.239a2.468,2.468,0,0,1,0-4.935h6.745a2.468,2.468,0,1,1,0,4.935Zm23.2-22.374a2.386,2.386,0,0,1,0-3.455l4.771-4.935a2.385,2.385,0,0,1,3.455,0h0a2.386,2.386,0,0,1,0,3.455l-4.771,4.935a2.384,2.384,0,0,1-3.455,0Zm-43.1,0-4.771-4.935a2.443,2.443,0,0,1,3.455-3.455h0l4.771,4.935a2.443,2.443,0,0,1-3.455,3.455Zm20.893-10.694v-6.91a2.473,2.473,0,0,1,4.936-.329v7.239a2.473,2.473,0,0,1-4.936.329Z" transform="translate(-98.1 -83)" fill="#38a063"/>
  </g>
</svg>
