<svg xmlns="http://www.w3.org/2000/svg" viewBox="0 0 512 104.77"><defs><style>.cls-1{fill:#2cc84d;}</style></defs><g id="Layer_2" data-name="Layer 2"><g id="Layer_1-2" data-name="Layer 1"><path class="cls-1" d="M137,12.71A96.59,96.59,0,0,0,88.44,0,96.59,96.59,0,0,0,39.93,12.71C15.13,27.17,1,51.63,0,81.61H21.2C22.32,53.36,37.78,38.51,50.6,31a76.41,76.41,0,0,1,37.84-9.75A76.05,76.05,0,0,1,126.25,31c12.85,7.5,28.28,22.32,29.4,50.6h21.2C175.91,51.63,161.75,27.17,137,12.71Z"/><path class="cls-1" d="M115.75,44.36c-16.33-9.53-38.29-9.53-54.64,0-13.55,7.91-21.63,21.12-22.8,37.25H59.6A24.36,24.36,0,0,1,71.78,62.67a34.25,34.25,0,0,1,33.3,0,24.39,24.39,0,0,1,12.2,18.94h21.29C137.37,65.48,129.29,52.27,115.75,44.36Z"/><path class="cls-1" d="M117.28,81.61a24.39,24.39,0,0,0-12.2-18.94,34.25,34.25,0,0,0-33.3,0A24.36,24.36,0,0,0,59.6,81.61H38.31c1.17-16.13,9.25-29.34,22.8-37.25,16.35-9.53,38.31-9.53,54.64,0,13.54,7.91,21.62,21.12,22.82,37.25Z"/><path d="M333.15,63.19l.41-46.41-3.69-14L347.26.74l2.92,1.68V63.64a47.94,47.94,0,0,0,.84,8.87l1.8,9.51H330.08l2-9.08A48.47,48.47,0,0,0,333.15,63.19Z"/><path d="M235,23.46c-6,.38-11,3.64-15,8V24.6l-2.87-1.66-17.44,2,3.69,13.37L203,87.37a37.86,37.86,0,0,1-1,8.07L200,104.77h22.74l-1.91-9.67a37.94,37.94,0,0,1-.72-7.36V76.33a21.68,21.68,0,0,0,15,6.32c13.53,0,24.16-11.84,24.49-29.85C259.94,33.54,248.75,22.57,235,23.46Zm6.41,30.68c-.62,15.27-6.54,20.35-14.49,20.25a11.64,11.64,0,0,1-6.87-2.46V36a13,13,0,0,1,8.33-2.82C236.39,33.29,242,39.72,241.42,54.14Z"/><path d="M322.75,73.94A4.07,4.07,0,0,1,317.61,70c0-8.71.1-17.41.11-26.11,0-3.95-.46-8-2.43-11.46a18,18,0,0,0-10-7.64c-8.54-2.85-17.89-1.17-26.47.57-3,.61-6.08,1.29-9.07,2.12V43.54s8.35-6.69,14.43-10.82c2.81-1.9,8.56-5.22,12.05-4.13,5.27,1.65,4.83,14.57,4.78,19.92-8.64-3.39-19.74-1.35-19.82-1.34-9,1.53-15.8,8.92-15.8,17.81,0,10,8.61,18.1,19.24,18.1A19.49,19.49,0,0,0,301.37,74c1.46,5.07,6.47,10.75,15.69,8.4,6.88-1.75,7.87-9,7.87-9ZM300.8,70.09a9.84,9.84,0,0,1-7.57,3.63c-5.62,0-10.09-4.14-10.18-10.94-.08-5.61,3-9.38,7.25-10.55l0,0h0c3.63-1,9.37-.62,10.67-.41Z"/><path d="M449.35,73.94A4.08,4.08,0,0,1,444.2,70c0-8.71.1-17.41.11-26.11,0-3.95-.45-8-2.43-11.46a17.93,17.93,0,0,0-10-7.64c-8.54-2.85-17.9-1.17-26.48.57-3,.61-6.07,1.29-9.06,2.12V43.54s8.34-6.69,14.42-10.82c2.81-1.9,8.57-5.22,12.05-4.13,5.27,1.65,4.84,14.57,4.79,19.92-8.64-3.39-19.74-1.35-19.83-1.34C398.82,48.7,392,56.09,392,65c0,10,8.62,18.1,19.24,18.1A19.46,19.46,0,0,0,428,74c1.46,5.07,6.48,10.75,15.7,8.4,6.88-1.75,7.87-9,7.87-9Zm-22-3.85a9.83,9.83,0,0,1-7.56,3.63c-5.63,0-10.09-4.14-10.19-10.94-.07-5.61,3-9.38,7.26-10.55l0,0h0c3.63-1,9.38-.62,10.67-.41Z"/><path d="M367.87,24.08l21.4.15L366.15,44.59l24,37.5-20.45-.17L351.16,51.43,364.47,39.7a13.26,13.26,0,0,0,3.4-15.47Z"/><path d="M493.4,70.2S490.59,80.41,480,82.81C470,85,460,78.05,460.2,68.21V28.9l-8.6-.21V23.45s16-3.41,23.87-17l1.26.72.08,16.3h15.44v5.24H476.83L477,64a8.66,8.66,0,0,0,11.83,8Z"/><path d="M508.2,79.57h-1.57l-.24-.76-1.48-1.94h-1.5v1.76l.19.94h-1.39l.16-.94V73.8l-.16-.94h3.15c1.6,0,2.36.71,2.36,2A1.83,1.83,0,0,1,506,76.71Zm-3.13-3.46c1,0,1.62-.43,1.62-1.27s-.47-1.27-1.48-1.27h-1.82v2.54Z"/><path d="M504.91,83.51A7.09,7.09,0,1,1,512,76.43,7.09,7.09,0,0,1,504.91,83.51Zm0-13.16A6.08,6.08,0,1,0,511,76.43,6.08,6.08,0,0,0,504.91,70.35Z"/></g></g></svg>