<svg width="163" height="196" viewBox="0 0 163 196" fill="none" xmlns="http://www.w3.org/2000/svg">
<path d="M16 65.4998C16 5.38794 37.8362 0 81.5028 0C125.17 0 147 6.54706 147 65.4998C147 125.379 125.17 131 81.5028 131C37.8362 131 16 122.833 16 65.4998Z" fill="#841474"/>
<path d="M121 63.5256C121.006 55.9159 118.813 48.4666 114.685 42.0736C110.557 35.6804 104.67 30.6159 97.7315 27.4888C90.7934 24.3618 83.0994 23.3054 75.575 24.4469C68.0505 25.5883 61.0161 28.879 55.3176 33.923C49.6192 38.9669 45.4993 45.5496 43.4537 52.8792C41.408 60.2088 41.5236 67.9732 43.7865 75.2388C46.0494 82.5046 50.3632 88.9615 56.2092 93.8337C62.0552 98.7059 69.1844 101.786 76.7395 102.703V118L105.891 94.5482C106.273 94.2536 106.655 93.9702 107.048 93.6405L108.089 92.807H107.968C112.074 89.1147 115.358 84.5994 117.603 79.5541C119.848 74.509 121.006 69.0477 121 63.5256ZM81.8122 85.8033C78.898 85.8088 76.0113 85.2388 73.3182 84.1252C70.6252 83.0115 68.1788 81.3765 66.1198 79.3145L70.0415 75.3933C73.1646 78.51 77.3969 80.2605 81.8094 80.2605C86.2219 80.2605 90.4541 78.51 93.5772 75.3933L97.4991 79.3145C95.4407 81.3765 92.9954 83.0107 90.3033 84.1244C87.6112 85.238 84.7256 85.8088 81.8122 85.8033Z" fill="white"/>
<path d="M2.87283 186.604C2.0429 186.604 1.35662 186.338 0.81397 185.805C0.271324 185.242 0 184.553 0 183.738V164.336C0 163.521 0.271324 162.848 0.81397 162.315C1.35662 161.752 2.0429 161.47 2.87283 161.47C3.70276 161.47 4.38905 161.752 4.9317 162.315C5.47434 162.848 5.74567 163.521 5.74567 164.336V168.752L5.4105 165.604C5.76162 164.852 6.20851 164.195 6.75116 163.631C7.32572 163.036 7.96413 162.55 8.66638 162.174C9.36862 161.767 10.1188 161.47 10.9168 161.282C11.7148 161.094 12.5128 161 13.3108 161C14.2684 161 15.0664 161.266 15.7048 161.799C16.3751 162.331 16.7103 162.957 16.7103 163.678C16.7103 164.711 16.439 165.463 15.8963 165.933C15.3537 166.371 14.7632 166.591 14.1248 166.591C13.5183 166.591 12.9597 166.481 12.4489 166.262C11.9701 166.043 11.4115 165.933 10.7731 165.933C10.1986 165.933 9.60803 166.074 9.00154 166.356C8.42697 166.606 7.88433 167.013 7.3736 167.577C6.8948 168.141 6.49579 168.846 6.17659 169.691C5.88931 170.506 5.74567 171.477 5.74567 172.604V183.738C5.74567 184.553 5.47434 185.242 4.9317 185.805C4.38905 186.338 3.70276 186.604 2.87283 186.604ZM39.2561 161C40.0861 161 40.7724 161.266 41.315 161.799C41.8577 162.331 42.129 163.02 42.129 163.866V183.738C42.129 184.553 41.8577 185.242 41.315 185.805C40.7724 186.338 40.0861 186.604 39.2561 186.604C38.4262 186.604 37.7399 186.338 37.1973 185.805C36.6546 185.242 36.3833 184.553 36.3833 183.738V181.436L37.4367 181.859C37.4367 182.266 37.2132 182.767 36.7664 183.362C36.3195 183.926 35.713 184.49 34.9469 185.054C34.1808 185.617 33.2711 186.103 32.2177 186.51C31.1963 186.886 30.0791 187.074 28.8661 187.074C26.6636 187.074 24.6685 186.526 22.881 185.43C21.0935 184.302 19.673 182.767 18.6196 180.826C17.5982 178.852 17.0875 176.597 17.0875 174.06C17.0875 171.492 17.5982 169.237 18.6196 167.295C19.673 165.322 21.0775 163.787 22.8331 162.691C24.5887 161.564 26.5359 161 28.6745 161C30.0471 161 31.308 161.204 32.4571 161.611C33.6062 162.018 34.5958 162.535 35.4257 163.161C36.2876 163.787 36.9419 164.43 37.3888 165.087C37.8676 165.714 38.107 166.246 38.107 166.685L36.3833 167.295V163.866C36.3833 163.051 36.6546 162.378 37.1973 161.846C37.7399 161.282 38.4262 161 39.2561 161ZM29.5843 181.906C30.9888 181.906 32.2177 181.562 33.2711 180.872C34.3244 180.183 35.1384 179.244 35.713 178.054C36.3195 176.864 36.6227 175.532 36.6227 174.06C36.6227 172.557 36.3195 171.21 35.713 170.02C35.1384 168.83 34.3244 167.89 33.2711 167.201C32.2177 166.512 30.9888 166.168 29.5843 166.168C28.2117 166.168 26.9987 166.512 25.9454 167.201C24.892 167.89 24.0621 168.83 23.4556 170.02C22.881 171.21 22.5937 172.557 22.5937 174.06C22.5937 175.532 22.881 176.864 23.4556 178.054C24.0621 179.244 24.892 180.183 25.9454 180.872C26.9987 181.562 28.2117 181.906 29.5843 181.906ZM65.1272 161.47C65.9571 161.47 66.6434 161.752 67.186 162.315C67.7287 162.848 68 163.521 68 164.336V184.302C68 187.183 67.4414 189.47 66.3242 191.161C65.2389 192.884 63.7706 194.121 61.9192 194.872C60.0678 195.624 57.993 196 55.6947 196C54.6733 196 53.588 195.922 52.4388 195.765C51.2897 195.608 50.348 195.374 49.6139 195.06C48.6563 194.653 47.9859 194.136 47.6029 193.51C47.2518 192.915 47.1879 192.273 47.4114 191.584C47.6987 190.676 48.1615 190.049 48.7999 189.705C49.4383 189.391 50.1086 189.36 50.8109 189.611C51.3216 189.767 51.9919 190.002 52.8219 190.315C53.6518 190.66 54.6094 190.832 55.6947 190.832C57.163 190.832 58.376 190.629 59.3336 190.221C60.3232 189.846 61.0573 189.188 61.5361 188.248C62.0469 187.34 62.3022 186.087 62.3022 184.49V181.342L63.3077 182.47C62.7651 183.503 62.0788 184.365 61.2488 185.054C60.4508 185.711 59.4932 186.213 58.376 186.557C57.2588 186.902 55.982 187.074 54.5456 187.074C52.8538 187.074 51.3695 186.698 50.0927 185.946C48.8478 185.163 47.8742 184.098 47.172 182.752C46.4697 181.374 46.1186 179.808 46.1186 178.054V164.336C46.1186 163.521 46.3899 162.848 46.9326 162.315C47.4752 161.752 48.1615 161.47 48.9914 161.47C49.8214 161.47 50.5077 161.752 51.0503 162.315C51.5929 162.848 51.8643 163.521 51.8643 164.336V176.362C51.8643 178.398 52.3112 179.839 53.2049 180.685C54.1306 181.499 55.4074 181.906 57.0354 181.906C58.1526 181.906 59.0942 181.702 59.8603 181.295C60.6264 180.857 61.2169 180.23 61.6319 179.416C62.0469 178.57 62.2543 177.553 62.2543 176.362V164.336C62.2543 163.521 62.5257 162.848 63.0683 162.315C63.611 161.752 64.2972 161.47 65.1272 161.47Z" fill="#20225E"/>
<path d="M82.5583 161.1C84.3728 161.1 85.9485 161.287 87.2855 161.66C88.6544 162.033 89.7049 162.562 90.437 163.247C91.201 163.9 91.583 164.693 91.583 165.627C91.583 166.249 91.392 166.84 91.01 167.4C90.628 167.929 90.071 168.193 89.3388 168.193C88.8295 168.193 88.3997 168.131 88.0495 168.007C87.7312 167.851 87.4447 167.664 87.19 167.447C86.9354 167.229 86.633 167.027 86.2828 166.84C85.9645 166.653 85.471 166.513 84.8025 166.42C84.1659 166.296 83.6884 166.233 83.37 166.233C81.7465 166.233 80.3618 166.576 79.2158 167.26C78.1016 167.944 77.2421 168.878 76.6373 170.06C76.0324 171.211 75.73 172.549 75.73 174.073C75.73 175.567 76.0324 176.904 76.6373 178.087C77.2739 179.238 78.1334 180.156 79.2158 180.84C80.3299 181.524 81.6033 181.867 83.0358 181.867C83.8316 181.867 84.516 181.82 85.089 181.727C85.662 181.633 86.1395 181.493 86.5215 181.307C86.9672 181.058 87.3651 180.793 87.7153 180.513C88.0655 180.233 88.5907 180.093 89.291 180.093C90.1187 180.093 90.7554 180.358 91.201 180.887C91.6467 181.384 91.8695 182.007 91.8695 182.753C91.8695 183.531 91.4239 184.247 90.5325 184.9C89.6412 185.522 88.4634 186.036 86.999 186.44C85.5665 186.813 84.0067 187 82.3195 187C79.8047 187 77.6241 186.44 75.7778 185.32C73.9314 184.169 72.4989 182.613 71.4803 180.653C70.4934 178.693 70 176.5 70 174.073C70 171.522 70.5253 169.282 71.5758 167.353C72.6581 165.393 74.1383 163.869 76.0165 162.78C77.9265 161.66 80.1071 161.1 82.5583 161.1ZM107.754 161.1C110.046 161.1 111.78 161.582 112.958 162.547C114.168 163.511 114.996 164.802 115.441 166.42C115.887 168.007 116.11 169.78 116.11 171.74V183.687C116.11 184.496 115.839 185.18 115.298 185.74C114.757 186.269 114.072 186.533 113.245 186.533C112.417 186.533 111.733 186.269 111.192 185.74C110.65 185.18 110.38 184.496 110.38 183.687V171.74C110.38 170.713 110.252 169.796 109.998 168.987C109.743 168.147 109.282 167.478 108.613 166.98C107.945 166.482 106.99 166.233 105.748 166.233C104.538 166.233 103.504 166.482 102.644 166.98C101.785 167.478 101.132 168.147 100.687 168.987C100.273 169.796 100.066 170.713 100.066 171.74V183.687C100.066 184.496 99.7952 185.18 99.2541 185.74C98.7129 186.269 98.0285 186.533 97.2008 186.533C96.3731 186.533 95.6887 186.269 95.1475 185.74C94.6064 185.18 94.3358 184.496 94.3358 183.687V154.847C94.3358 154.038 94.6064 153.369 95.1475 152.84C95.6887 152.28 96.3731 152 97.2008 152C98.0285 152 98.7129 152.28 99.2541 152.84C99.7952 153.369 100.066 154.038 100.066 154.847V166.42L99.3496 166.28C99.6361 165.751 100.034 165.191 100.543 164.6C101.053 163.978 101.673 163.402 102.406 162.873C103.138 162.344 103.949 161.924 104.841 161.613C105.732 161.271 106.703 161.1 107.754 161.1ZM141.319 161.1C142.147 161.1 142.831 161.364 143.372 161.893C143.913 162.422 144.184 163.107 144.184 163.947V183.687C144.184 184.496 143.913 185.18 143.372 185.74C142.831 186.269 142.147 186.533 141.319 186.533C140.491 186.533 139.807 186.269 139.266 185.74C138.725 185.18 138.454 184.496 138.454 183.687V181.4L139.504 181.82C139.504 182.224 139.282 182.722 138.836 183.313C138.39 183.873 137.785 184.433 137.021 184.993C136.257 185.553 135.35 186.036 134.3 186.44C133.281 186.813 132.167 187 130.957 187C128.761 187 126.771 186.456 124.988 185.367C123.206 184.247 121.789 182.722 120.739 180.793C119.72 178.833 119.211 176.593 119.211 174.073C119.211 171.522 119.72 169.282 120.739 167.353C121.789 165.393 123.19 163.869 124.941 162.78C126.692 161.66 128.633 161.1 130.766 161.1C132.135 161.1 133.392 161.302 134.538 161.707C135.684 162.111 136.671 162.624 137.499 163.247C138.358 163.869 139.011 164.507 139.457 165.16C139.934 165.782 140.173 166.311 140.173 166.747L138.454 167.353V163.947C138.454 163.138 138.725 162.469 139.266 161.94C139.807 161.38 140.491 161.1 141.319 161.1ZM131.673 181.867C133.074 181.867 134.3 181.524 135.35 180.84C136.401 180.156 137.212 179.222 137.785 178.04C138.39 176.858 138.693 175.536 138.693 174.073C138.693 172.58 138.39 171.242 137.785 170.06C137.212 168.878 136.401 167.944 135.35 167.26C134.3 166.576 133.074 166.233 131.673 166.233C130.305 166.233 129.095 166.576 128.044 167.26C126.994 167.944 126.166 168.878 125.561 170.06C124.988 171.242 124.702 172.58 124.702 174.073C124.702 175.536 124.988 176.858 125.561 178.04C126.166 179.222 126.994 180.156 128.044 180.84C129.095 181.524 130.305 181.867 131.673 181.867ZM149.009 162.033H160.326C161.09 162.033 161.727 162.282 162.236 162.78C162.745 163.278 163 163.9 163 164.647C163 165.362 162.745 165.969 162.236 166.467C161.727 166.933 161.09 167.167 160.326 167.167H149.009C148.245 167.167 147.609 166.918 147.099 166.42C146.59 165.922 146.335 165.3 146.335 164.553C146.335 163.838 146.59 163.247 147.099 162.78C147.609 162.282 148.245 162.033 149.009 162.033ZM154.118 156.2C154.946 156.2 155.615 156.48 156.124 157.04C156.665 157.569 156.936 158.238 156.936 159.047V179.813C156.936 180.249 157.015 180.607 157.174 180.887C157.365 181.167 157.604 181.369 157.891 181.493C158.209 181.618 158.543 181.68 158.893 181.68C159.275 181.68 159.626 181.618 159.944 181.493C160.262 181.338 160.628 181.26 161.042 181.26C161.488 181.26 161.886 181.462 162.236 181.867C162.618 182.271 162.809 182.831 162.809 183.547C162.809 184.418 162.316 185.133 161.329 185.693C160.374 186.253 159.339 186.533 158.225 186.533C157.556 186.533 156.808 186.487 155.981 186.393C155.185 186.269 154.421 186.004 153.689 185.6C152.988 185.164 152.399 184.511 151.922 183.64C151.444 182.769 151.206 181.571 151.206 180.047V159.047C151.206 158.238 151.476 157.569 152.017 157.04C152.59 156.48 153.291 156.2 154.118 156.2Z" fill="#841474"/>
</svg>
