<?xml version="1.0" encoding="UTF-8" standalone="no"?>
<!-- Created with Inkscape (http://www.inkscape.org/) -->

<svg
   xmlns:dc="http://purl.org/dc/elements/1.1/"
   xmlns:cc="http://creativecommons.org/ns#"
   xmlns:rdf="http://www.w3.org/1999/02/22-rdf-syntax-ns#"
   xmlns:svg="http://www.w3.org/2000/svg"
   xmlns="http://www.w3.org/2000/svg"
   xmlns:sodipodi="http://sodipodi.sourceforge.net/DTD/sodipodi-0.dtd"
   xmlns:inkscape="http://www.inkscape.org/namespaces/inkscape"
   width="104.30374mm"
   height="37.227081mm"
   viewBox="0 0 369.58021 131.90698"
   id="svg2"
   version="1.1"
   inkscape:version="0.92.2 5c3e80d, 2017-08-06"
   sodipodi:docname="Targoman-Logo-fa.svg">
  <defs
     id="defs4">
    <style
       id="style6"
       type="text/css">
    .fil0 {fill:#004234}
    .fil1 {fill:#34A853}
   </style>
  </defs>
  <sodipodi:namedview
     id="base"
     pagecolor="#ffffff"
     bordercolor="#666666"
     borderopacity="1.0"
     inkscape:pageopacity="0.0"
     inkscape:pageshadow="2"
     inkscape:zoom="0.98994949"
     inkscape:cx="-32.094922"
     inkscape:cy="113.93388"
     inkscape:document-units="px"
     inkscape:current-layer="layer1"
     showgrid="false"
     fit-margin-top="0"
     fit-margin-left="0"
     fit-margin-right="0"
     fit-margin-bottom="0"
     inkscape:window-width="1920"
     inkscape:window-height="1015"
     inkscape:window-x="0"
     inkscape:window-y="0"
     inkscape:window-maximized="1"
     showguides="true"
     inkscape:guide-bbox="true">
    <sodipodi:guide
       position="200.83019,84.478632"
       orientation="1,0"
       id="guide863"
       inkscape:locked="false" />
  </sodipodi:namedview>
  <metadata
     id="metadata7">
    <rdf:RDF>
      <cc:Work
         rdf:about="">
        <dc:format>image/svg+xml</dc:format>
        <dc:type
           rdf:resource="http://purl.org/dc/dcmitype/StillImage" />
        <dc:title></dc:title>
      </cc:Work>
    </rdf:RDF>
  </metadata>
  <g
     inkscape:label="Layer 1"
     inkscape:groupmode="layer"
     id="layer1"
     transform="translate(-268.08609,-372.11016)">
    <g
       inkscape:label="Layer 1"
       id="g4457"
       transform="matrix(0.97996961,0,0,0.97355563,-200.6908,-58.387405)">
      <g
         id="g4459">
        <g
           transform="translate(-6.0683965,-190.54765)"
           id="g4461">
          <path
             sodipodi:nodetypes="cccccccccccccc"
             inkscape:connector-curvature="0"
             style="fill:#2e1c59;fill-opacity:1"
             d="m 749.36212,632.73868 v 58.04883 58.05078 h 25.80078 25.79883 V 690.78751 632.73868 H 775.1629 Z m 9.5633,9.56445 h 32.47186 v 96.97852 h -32.47186 c 0,-32.32617 0,-64.65235 0,-96.97852 z"
             id="path4463" />
          <path
             inkscape:connector-curvature="0"
             style="fill:#2e1c59;fill-opacity:1"
             d="m 809.6629,697.23868 v 25.79883 25.80078 h 25.94922 25.94922 v -25.80078 -25.79883 h -25.94922 z m 9.55277,9.57422 h 32.7929 v 32.46875 h -32.7929 z"
             id="path4465"
             sodipodi:nodetypes="cccccccccccccc" />
          <path
             inkscape:connector-curvature="0"
             style="fill:#2e1c59;fill-opacity:1"
             d="m 689.36212,632.73868 v 25.95117 25.94922 h 25.94922 25.95117 v -25.94922 -25.95117 h -25.95117 z m 9.56641,9.56836 h 32.76953 v 32.76562 h -32.76953 z"
             id="path4467"
             sodipodi:nodetypes="cccccccccccccc" />
          <path
             inkscape:connector-curvature="0"
             style="fill:#2e1c59;fill-opacity:1"
             d="m 809.6629,632.73868 v 25.95117 25.94922 h 25.94922 25.94922 v -25.94922 -25.95117 h -25.94922 z m 9.55277,9.56836 h 32.78118 v 32.76953 h -32.78118 z"
             id="path4469"
             sodipodi:nodetypes="cccccccccccccc" />
        </g>
      </g>
    </g>
    <g
       transform="matrix(1.0187068,0,0,1.0187068,1652.6841,-16.030522)"
       id="g3294"
       style="opacity:1">
      <g
         id="g3296"
         transform="matrix(0.96365831,0,0,0.96365831,364.96359,100.91885)">
        <g
           id="g3298"
           transform="translate(2.473079,149.34381)">
          <path
             inkscape:connector-curvature="0"
             id="path3300"
             d="m -1766.5926,215.66607 v 9.2174 h 9.8374 v -9.2174 z m -25.0373,5.98872 v 19.42393 c 1.0172,10.88569 6.2025,16.39132 15.5939,16.53533 l 20.7323,-0.0788 3.0794,-0.0394 3.0731,0.0394 5.2298,0.0788 c 9.3939,-0.14401 14.5814,-5.64905 15.6063,-16.53533 v -19.42393 h -8.9125 v 14.20454 c 0,8.49078 -3.6781,12.51019 -11.0401,12.08527 h -20.0337 c -7.3569,0.42491 -14.4222,-3.59449 -14.4222,-12.08527 v -14.20454 z"
             style="fill:#929397;fill-opacity:0.90196078" />
          <path
             sodipodi:nodetypes="cccccccccccccscsssccccsccccscccccccccccccccccccccccscscc"
             inkscape:connector-curvature="0"
             id="path3302"
             d="m -1600.2977,182.27821 -24.017,12.83179 v 2.96946 l 24.017,-12.8297 z m 5.3335,5.43505 c -23.3348,11.68896 -37.1994,18.71363 -39.4078,22.94707 -0.9936,1.90131 -1.1086,2.31918 -0.761,4.21989 0.4233,2.41082 4.4286,6.73372 11.9961,12.95828 7.5654,6.01793 12.2966,10.78725 14.1859,14.26053 2.0156,3.51085 -1.6777,5.19132 -11.1044,5.07215 -6.4146,-0.11424 -12.6482,-0.14436 -19.3099,-0.2198 -2.1393,-0.43196 -4.2386,-1.67977 -5.4993,-3.47752 -1.5249,-2.25352 -3.1023,-7.35776 -3.1023,-10.04064 0,-5.53305 -2.7149,-11.56555 -7.2888,-16.19939 -4.1163,-4.16988 -7.365,-5.42024 -13.3358,-5.12609 -3.4102,0.16802 -4.8252,0.49548 -6.9881,1.60501 -5.964,3.05939 -10.6609,10.17235 -11.6519,17.64682 -0.9456,7.13147 -1.519,9.25256 -3.1499,11.64979 -3.6749,4.41454 -8.0395,4.23269 -13.2755,3.62475 -1.5817,-0.29654 -2.9463,-1.2702 -4.0332,-2.3059 -0.9941,-0.86532 -1.5947,-2.09457 -2.1049,-3.14989 -0.962,-2.99037 -1.0265,-8.9023 -1.0265,-25.46863 v -22.04296 h -4.8046 -4.8046 l 0.1638,24.77396 c 0.1598,23.81846 0.2105,24.88202 1.238,27.60242 2.2664,6.00047 5.7754,9.39086 10.895,10.51967 3.5865,0.53799 7.5119,0.41783 10.9156,0.42509 5.5077,-0.65441 10.5581,-1.9948 13.0454,-5.34588 l 1.4308,-1.9762 1.1405,1.54695 c 1.5895,2.14987 5.9843,5.06361 8.8483,5.87052 1.3656,0.38349 3.9706,0.60507 6.0323,0.50805 4.5339,-0.21328 9.1289,-2.31954 12.1039,-5.54703 l 2.0322,-2.20844 1.5594,2.17111 c 1.0133,1.41093 2.508,2.63635 4.2614,3.49411 l 2.6978,1.32092 28.9566,-0.29653 c 8.4931,0.10511 13.669,-1.71686 15.5399,-5.51592 1.9113,-3.89241 2.3907,-7.41864 1.4474,-10.56321 -0.9963,-3.25199 -3.0231,-6.31698 -6.0758,-9.21324 -1.7871,-1.65065 -4.0449,-3.72184 -6.7726,-6.09448 -3.3365,-2.88219 -14.5002,-10.101 -12.2159,-11.4922 l 28.2225,-15.46325 z m -74.0524,34.36669 c 0.512,-0.008 1.1067,0.0154 1.8373,0.056 3.877,0.2191 5.8077,1.29191 8.1661,4.54752 5.0437,6.96286 1.4717,18.51156 -6.335,20.47735 -2.4577,0.61887 -2.9491,0.62355 -4.8275,0.056 -5.1386,-1.55232 -8.4729,-6.50761 -8.4729,-12.59745 0,-5.14284 2.0822,-9.1517 5.9243,-11.40926 1.3902,-0.81705 2.1719,-1.10702 3.7077,-1.13014 z"
             style="fill:#929397;fill-opacity:0.90196078" />
        </g>
        <path
           sodipodi:nodetypes="ccccsccsscccccscsssccc"
           inkscape:connector-curvature="0"
           style="fill:#929397;fill-opacity:0.90196078"
           d="m -1606.7121,420.17055 v -4.85244 l 2.8923,-0.006 c 7.6259,-0.0151 14.123,-3.80333 16.7635,-9.77256 2.2174,-5.01296 2.4764,-7.36853 2.4764,-22.51954 v -11.87197 c 3.5211,0 7.0421,0 10.5632,0 v 6.35329 c 0,10.77364 0.5279,13.17207 3.4883,15.84661 1.0854,0.9806 2.8383,2.02309 3.8954,2.31664 1.1682,0.32434 8.1856,0.53475 17.8924,0.53646 l 15.9703,0.005 v 4.77855 4.77856 h -18.7827 c -14.9793,0 -19.2747,-0.14805 -21.2122,-0.73111 -2.6112,-0.7859 -3.2635,-0.66951 -3.2635,0.58227 0,1.43282 -3.4028,7.89343 -5.3535,10.16445 -4.3046,5.01135 -12.2218,8.44251 -20.6772,8.96106 l -4.6527,0.28535 v -4.85244 z"
           id="path3304" />
      </g>
      <path
         id="path3306"
         d="m -1142.6409,463.18364 v -4.6049 h 5.5743 5.5745 v 4.6049 4.6049 h -5.5745 -5.5743 z"
         style="fill:#929397;fill-opacity:0.90196078"
         inkscape:connector-curvature="0" />
      <path
         id="path3308"
         d="m -1123.2518,463.18364 v -4.6049 h 5.5743 5.5743 v 4.6049 4.6049 h -5.5743 -5.5743 z"
         style="fill:#929397;fill-opacity:0.90196078"
         inkscape:connector-curvature="0" />
    </g>
  </g>
</svg>
