<?xml version="1.0" encoding="utf-8"?>
<!-- Generator: Adobe Illustrator 25.2.3, SVG Export Plug-In . SVG Version: 6.00 Build 0)  -->
<svg version="1.1" id="Layer_1" xmlns="http://www.w3.org/2000/svg" xmlns:xlink="http://www.w3.org/1999/xlink" x="0px" y="0px"
	 viewBox="0 0 838.4 245.3" style="enable-background:new 0 0 838.4 245.3;" xml:space="preserve">
<style type="text/css">
	.st0{fill:#0263CC;}
	.st1{fill:#FFFFFF;}
	.st2{fill:#FFFFFF;stroke:#000000;stroke-width:22.5854;stroke-miterlimit:10;}
	.st3{fill:none;stroke:#000000;stroke-width:22.5854;stroke-linecap:round;stroke-miterlimit:10;}
</style>
<g>
	<g>
		<path class="st0" d="M771.5,245.3H659.9c-37,0-66.9-29.9-66.9-66.9V66.9c0-37,29.9-66.9,66.9-66.9h111.6c37,0,66.9,29.9,66.9,66.9
			v111.6C838.4,215.4,808.5,245.3,771.5,245.3z"/>
		<g>
			<path class="st1" d="M654.3,121.2c0,2.5-1,5-2.7,6.7c-1.7,1.7-4,2.7-6.7,2.7h-9.4c-5.2,0-9.4-4.2-9.4-9.4c0-2.5,1-5,2.7-6.7
				c1.7-1.7,4-2.7,6.7-2.7h9.4c0,0,0,0,0.2,0C650.1,112,654.3,116.2,654.3,121.2z"/>
		</g>
		<g>
			<path class="st1" d="M797.4,133.9L709,199.8c-10.2,7.7-24.9,0.4-24.9-12.5V168h-33.2c-5.2,0-9.4-4.2-9.4-9.4c0-2.5,1-5,2.7-6.7
				c1.7-1.7,4-2.7,6.7-2.7h35.9c2.5,0,5-1,6.7-2.7c1.7-1.7,2.7-4,2.7-6.7c0-5.2-4.2-9.4-9.4-9.4H672c-5,0-9.2-4.2-9.2-9.2l0,0
				c0-5,4-9.2,9.2-9.2h18.4c0,0,0,0,0.2,0c2.5,0,4.8-1,6.5-2.7c1.7-1.7,2.7-4,2.7-6.7c0-5.2-4.2-9.4-9.4-9.4h-28.8
				c-5.2,0-9.4-4.2-9.4-9.4c0-2.5,1-5,2.7-6.7c1.7-1.7,4-2.7,6.7-2.7h22.6v-19c0-12.7,14.6-20.3,24.9-12.5l88.4,66
				C805.8,115.1,805.8,127.7,797.4,133.9z"/>
		</g>
	</g>
	<g>
		<g>
			<path d="M471.6,42.8v31.3c0,23.4-19,42.6-42.6,42.6c-12.3,0-23.6-5.2-31.3-13.8c-7.7,8.4-19,13.8-31.3,13.8
				c-6.3,0-11.3-5-11.3-11.3c0-6.3,5-11.3,11.3-11.3c11.1,0,20.1-9,20.1-20.1V42.8c0-6.3,5-11.3,11.3-11.3c6.3,0,11.3,5,11.3,11.3
				v31.3c0,11.1,9,20.1,20.1,20.1c11.1,0,20.1-9,20.1-20.1V42.8c0-6.3,5-11.3,11.3-11.3S471.6,36.6,471.6,42.8z"/>
			<path d="M375.9,149.4h-79.2c-18.8,0-33.9-15.3-33.9-33.9c0-18.8,15.3-33.9,33.9-33.9H321c9.8,0,17.6-7.9,17.6-17.6v-7.7
				c0-6.3,5-11.3,11.3-11.3c6.3,0,11.3,5,11.3,11.3v7.5c0,22.2-18,40.1-40.1,40.1h-24.2c-6.3,0-11.3,5-11.3,11.3
				c0,6.3,5,11.3,11.3,11.3h79c6.3,0,11.3,5,11.3,11.3C387,144.2,382.2,149.4,375.9,149.4z"/>
			<path d="M449.7,149.4h-38c-6.3,0-11.3-5-11.3-11.3s5-11.3,11.3-11.3h38c6.3,0,11.3,5,11.3,11.3S455.8,149.4,449.7,149.4z"/>
			<path d="M551.7,44.5c-16.5-16.7-43.7-16.7-60.2,0c-16.7,16.7-16.7,43.7,0,60.4c5.2,5,11.3,8.6,17.8,10.7l-11.5,11.5
				c-4.4,4.4-4.4,11.5,0,15.9c2.3,2.3,5,3.3,7.9,3.3s5.9-1,7.9-3.3l38-38.2C568.4,88.2,568.4,61,551.7,44.5z M507.4,88.8
				c-7.7-7.7-7.7-20.5,0-28.4c4-4,9-5.9,14.2-5.9s10.2,1.9,14.2,5.9c7.7,7.7,7.7,20.5,0,28.4C528.1,96.8,515.3,96.5,507.4,88.8z"/>
			<path d="M252.9,44.5c-16.7-16.7-43.7-16.7-60.2,0c-16.7,16.7-16.7,43.7,0,60.4c5.2,5,11.3,8.6,17.8,10.7l-11.5,11.5
				c-4.4,4.4-4.4,11.5,0,15.9c2.1,2.3,5,3.3,7.9,3.3s5.9-1,7.9-3.3l38-38.2C269.6,88.2,269.6,61,252.9,44.5z M208.5,88.8
				c-7.7-7.7-7.7-20.5,0-28.4c4-4,9-5.9,14.2-5.9c5,0,10.2,1.9,14.2,5.9c7.7,7.7,7.7,20.5,0,28.4C229.2,96.8,216.3,96.5,208.5,88.8z
				"/>
			<path d="M160.3,44.5c-16.7-16.7-43.7-16.7-60.2,0c-16.7,16.7-16.7,43.7,0,60.4c5.2,5,11.3,8.6,17.8,10.7l-11.5,11.5
				c-4.4,4.4-4.4,11.5,0,15.9c2.1,2.3,5,3.3,7.9,3.3c2.9,0,5.9-1,7.9-3.3l38-38C177,88.2,177,61,160.3,44.5z M116,88.8
				c-7.7-7.7-7.7-20.5,0-28.4c4-4,9-5.9,14.2-5.9c5.2,0,10.2,1.9,14.2,5.9c7.7,7.7,7.7,20.5,0,28.4C136.7,96.5,123.9,96.5,116,88.8z
				"/>
			<path d="M38,117.2H11.3c-6.3,0-11.3-5-11.3-11.3c0-6.3,5-11.3,11.3-11.3H38c11.1,0,20.3-9.2,20.3-20.3s-9-20.3-20.3-20.3H27.2
				c-6.3,0-11.3-5-11.3-11.3s5-11.3,11.3-11.3H38c23.6,0,42.8,19.2,42.8,42.8S61.6,117.2,38,117.2z"/>
		</g>
		<g>
			<path d="M25.7,210.8c1.3,0,2.3,0,3.1-0.2c0.8-0.2,1.5-0.4,1.9-0.6c0.4-0.2,0.8-0.6,1-1c0.2-0.4,0.2-0.8,0.2-1.5s-0.2-1-0.4-1.5
				c-0.2-0.4-0.8-0.6-1.5-0.6H24l0.2-4.6h14.4c0.6,0,0.8,0.8,0.8,2.3c0,1.7-0.2,2.3-0.8,2.3h-3.6c0.4,0.2,0.6,0.6,0.6,1
				s0.2,1,0.2,1.7c0,0.8-0.2,1.5-0.4,2.5c-0.4,0.8-0.8,1.7-1.7,2.3c-0.8,0.8-1.7,1.3-3.1,1.9c-1.3,0.4-2.7,0.6-4.6,0.6h-4.4
				c-3.1,0-5.4-1-7.3-2.9c-1.7-1.9-2.5-4.6-2.5-7.9v-7.5h4.2v7.3c0,1,0.2,1.9,0.4,2.7c0.2,0.8,0.6,1.5,1,2.1c0.4,0.6,1,1,1.9,1.3
				c0.8,0.2,1.7,0.4,2.9,0.4H25.7z"/>
			<path d="M42.4,200.6c1.9,0,2.7-0.8,2.7-2.7v-4.8h4.2v5.2c0,2.3-0.6,4-1.7,5.2c-1.3,1.3-2.7,1.7-4.8,1.7h-4.2
				c-0.4,0-0.6-0.2-0.6-0.6c0-0.4-0.2-0.8-0.2-1.7s0-1.5,0.2-1.9c0.2-0.4,0.4-0.6,0.6-0.6h3.8V200.6z M43,214h-4.2v-4H43V214z
				 M48.9,214h-4.2v-4h4.2V214z"/>
			<path d="M57.7,210.8c1,0,1.9-0.2,2.7-0.4c0.8-0.2,1.5-0.6,1.9-1.3c0.4-0.4,0.8-1,1.3-1.7c0.2-0.6,0.4-1.5,0.4-2.1H61
				c-1.5,0-2.7-0.2-3.6-0.4c-0.8-0.2-1.7-0.8-2.1-1.3c-0.4-0.4-0.8-1.3-1-2.1s-0.2-1.9-0.2-2.9c0-1,0.2-2.1,0.4-3.1
				c0.2-1,0.8-1.9,1.3-2.5c0.6-0.6,1.3-1.3,2.3-1.7c0.8-0.4,1.9-0.6,3.1-0.6c1,0,1.9,0.2,2.7,0.4c0.8,0.2,1.7,0.8,2.3,1.5
				c0.6,0.6,1,1.5,1.5,2.5c0.4,1,0.6,2.3,0.6,3.8v1.7h3.3c0.6,0,0.8,0.8,0.8,2.3c0,1.7-0.2,2.3-0.8,2.3h-3.3c0,1.3-0.4,2.7-0.8,3.8
				c-0.4,1.3-1.3,2.3-2.1,3.1s-1.9,1.7-3.1,2.1c-1.3,0.6-2.5,0.8-4.2,0.8h-4.2l-0.2-4.6h4V210.8z M58.1,198.1c0,1,0.2,1.7,0.6,2.1
				c0.4,0.4,1.3,0.6,2.5,0.6h2.7v-1.9c0-1.5-0.2-2.5-0.8-3.1c-0.6-0.6-1.3-0.8-2.3-0.8c-0.8,0-1.7,0.2-2.1,0.8
				C58.3,196.4,58.1,197.1,58.1,198.1z"/>
			<path d="M75.2,200.6c1.9,0,2.7-0.8,2.7-2.7v-4.8h4.2v5.2c0,2.3-0.6,4-1.7,5.2c-1.3,1.3-2.7,1.7-4.8,1.7h-4.2
				c-0.4,0-0.6-0.2-0.6-0.6c0-0.4-0.2-0.8-0.2-1.7s0-1.5,0.2-1.9c0.2-0.4,0.2-0.4,0.6-0.4H75.2z M75.9,214h-4.2v-4h4.2V214z
				 M81.7,214h-4.2v-4h4.2V214z"/>
			<path d="M94.7,200.6c1,0,1.7-0.2,2.1-0.6c0.4-0.4,0.6-0.8,0.6-1.3c0-0.2,0-0.4-0.2-0.8c0-0.4-0.2-0.8-0.4-1.7
				c-0.2-0.8-0.6-1.9-1-3.3s-1-3.1-1.9-5.4l4-1.7l4.2,11.9c0.4,1,0.6,1.7,1.3,2.1c0.4,0.4,1.3,0.6,2.1,0.6h0.6
				c0.6,0,0.8,0.8,0.8,2.3c0,1.7-0.2,2.3-0.8,2.3h-0.6c-0.8,0-1.9-0.2-2.7-0.4c-0.8-0.4-1.7-1-2.3-2.1c-0.6,1-1.3,1.7-2.1,2.1
				c-0.8,0.4-1.9,0.6-2.9,0.6h-9l-0.2-4.6H94.7z"/>
			<path d="M109.5,200.6c1.9,0,2.7-0.8,2.7-2.7v-4.8h4.2v5.2c0,2.3-0.6,4-1.7,5.2c-1.3,1.3-2.7,1.7-4.8,1.7h-4.2
				c-0.4,0-0.6-0.2-0.6-0.6c0-0.4-0.2-0.8-0.2-1.7s0-1.5,0.2-1.9c0.2-0.4,0.4-0.6,0.6-0.6h3.8V200.6z M109.9,214h-4.2v-4h4.2V214z
				 M116,214h-4.2v-4h4.2V214z"/>
			<path d="M124.8,210.8c1,0,1.9-0.2,2.7-0.4c0.8-0.2,1.5-0.6,1.9-1.3c0.4-0.4,0.8-1,1.3-1.7c0.2-0.6,0.4-1.5,0.4-2.1h-2.9
				c-1.5,0-2.7-0.2-3.6-0.4c-0.8-0.2-1.7-0.8-2.1-1.3c-0.4-0.4-0.8-1.3-1-2.1c-0.2-0.8-0.2-1.9-0.2-2.9c0-1,0.2-2.1,0.4-3.1
				c0.2-1,0.8-1.9,1.3-2.5c0.6-0.6,1.3-1.3,2.3-1.7c0.8-0.4,1.9-0.6,3.1-0.6c1,0,1.9,0.2,2.7,0.4s1.7,0.8,2.3,1.5
				c0.6,0.6,1,1.5,1.5,2.5c0.4,1,0.6,2.3,0.6,3.8v5.9c0,1.5-0.2,2.7-0.6,4c-0.4,1.3-1,2.5-2.1,3.3c-0.8,1-1.9,1.7-3.1,2.3
				c-1.3,0.6-2.7,0.8-4.2,0.8h-4.2l-0.2-4.6h3.8V210.8z M125.2,198.1c0,1,0.2,1.7,0.6,2.1c0.4,0.4,1.3,0.6,2.5,0.6h2.7v-1.9
				c0-1.5-0.2-2.5-0.8-3.1c-0.6-0.6-1.3-0.8-2.3-0.8c-0.8,0-1.7,0.2-2.1,0.8S125.2,197.1,125.2,198.1z"/>
			<path d="M157.8,210.8c2.3,0,4-0.4,5.2-1.3c1.3-0.8,1.9-1.9,1.9-3.1c0-0.6-0.2-1-0.4-1.5c-0.2-0.4-0.8-0.4-1.7-0.4h-7.1v-7.9
				c0-1,0.2-2.1,0.4-2.9c0.4-0.8,0.8-1.7,1.5-2.3s1.5-1.3,2.3-1.5c0.8-0.4,1.9-0.6,2.9-0.6h4.8l0.2,4.6h-5c-0.8,0-1.5,0.2-2.1,0.6
				c-0.6,0.4-0.8,1.3-0.8,2.1v3.3h3.6c1,0,1.9,0.2,2.7,0.4c0.8,0.2,1.3,0.6,1.7,1.3c0.4,0.4,0.6,1,0.8,1.9c0.2,0.6,0.2,1.5,0.2,2.3
				c0,1.3-0.2,2.5-0.8,3.8c-0.6,1.3-1.3,2.1-2.3,2.9c-1,0.8-2.1,1.5-3.3,2.1c-1.3,0.4-2.7,0.6-4.2,0.6h-3.6c-3.1,0-5.4-1-7.3-2.9
				c-1.9-1.9-2.5-4.6-2.5-7.9v-7.5h4.2v7.3c0,1,0.2,1.9,0.4,2.7c0.2,0.8,0.6,1.5,1,2.1c0.4,0.6,1,1,1.9,1.3c0.8,0.2,1.7,0.4,2.9,0.4
				h2.5V210.8z"/>
			<path d="M173.9,179.5h4.2v25.7h-4.2V179.5z"/>
			<path d="M186.6,210.8c1,0,1.9-0.2,2.7-0.4c0.8-0.2,1.5-0.6,1.9-1.3c0.4-0.4,0.8-1,1.3-1.7c0.2-0.6,0.4-1.5,0.4-2.1h-2.7
				c-1.5,0-2.7-0.2-3.6-0.4c-0.8-0.2-1.7-0.8-2.1-1.3c-0.4-0.4-0.8-1.3-1-2.1s-0.2-1.9-0.2-2.9c0-1,0.2-2.1,0.4-3.1
				c0.2-1,0.8-1.9,1.3-2.5c0.6-0.6,1.3-1.3,2.3-1.7c1-0.4,1.9-0.6,3.1-0.6c1,0,1.9,0.2,2.7,0.4c0.8,0.2,1.7,0.8,2.3,1.5
				c0.6,0.6,1,1.5,1.5,2.5c0.4,1,0.6,2.3,0.6,3.8v1.7h3.3c0.6,0,0.8,0.8,0.8,2.3c0,1.7-0.2,2.3-0.8,2.3h-3.3c0,1.3-0.4,2.7-0.8,3.8
				c-0.4,1-1.3,2.3-2.1,3.1c-0.8,0.8-1.9,1.7-3.1,2.1c-1.3,0.6-2.5,0.8-4.2,0.8h-4.2l-0.2-4.6h3.8V210.8z M187,198.1
				c0,1,0.2,1.7,0.6,2.1c0.4,0.4,1.3,0.6,2.5,0.6h2.7v-1.9c0-1.5-0.2-2.5-0.8-3.1s-1.3-0.8-2.3-0.8c-0.8,0-1.7,0.2-2.1,0.8
				C187.4,196.2,187,197.1,187,198.1z"/>
			<path d="M203.3,200.6c1.9,0,2.7-0.8,2.7-2.7v-4.8h4.2v4.8c0,1,0.2,1.7,0.8,2.1c0.6,0.4,1.3,0.6,2.1,0.6h1c0.6,0,1,0.8,1,2.3
				c0,1.7-0.4,2.3-1,2.3h-1.3c-1,0-2.1-0.2-2.9-0.4c-0.8-0.4-1.7-1-2.3-2.1c-0.6,1-1.5,1.7-2.3,2.1c-0.8,0.4-1.7,0.4-2.5,0.4H200
				c-0.4,0-0.6-0.2-0.6-0.6c0-0.4-0.2-0.8-0.2-1.7s0-1.5,0.2-1.9c0.2-0.4,0.4-0.6,0.6-0.6h3.3V200.6z M206.9,188.3h-4.2v-4h4.2
				V188.3z M212.9,188.3h-4.4v-4h4.4V188.3z"/>
			<path d="M232.8,199.1c0.4,0.6,0.8,1,1.3,1.3c0.4,0.2,1,0.2,1.9,0.2h2.3c0.4,0,0.6,0.2,0.6,0.6c0.2,0.4,0.2,0.8,0.2,1.7
				s0,1.5-0.2,1.9c-0.2,0.4-0.4,0.6-0.6,0.6h-2.5c-0.8,0-1.7-0.2-2.3-0.4s-1.3-0.4-1.7-0.8c-0.4-0.4-0.8-0.8-1-1.3
				c-0.2-0.6-0.6-1-0.8-1.7l-3.3,2.1c-0.8,0.4-1.5,0.8-2.3,1c-0.6,0.2-1.5,0.6-2.3,0.6c-0.8,0.2-1.7,0.2-2.7,0.4
				c-1,0.2-2.1,0.2-3.3,0.2h-1.5c-0.4,0-0.6-0.2-0.6-0.6s-0.2-0.8-0.2-1.7s0-1.5,0.2-1.9c0.2-0.4,0.4-0.6,0.6-0.6h1.7
				c1,0,1.9,0,2.7,0s1.7-0.2,2.3-0.2c0.6-0.2,1.3-0.2,1.9-0.4c0.6-0.2,1.3-0.4,1.9-0.8l5.2-3.1c-0.2-0.4-0.4-0.6-0.6-1
				c-0.2-0.2-0.4-0.4-0.6-0.6c-0.2-0.2-0.6-0.4-1-0.4c-0.4,0-0.8-0.2-1.5-0.2h-8.8l0.2-4.6h9.2c0.8,0,1.5,0.2,2.3,0.4
				s1.5,0.6,2.1,1.3c0.6,0.6,1.3,1.5,1.9,2.7c0.6,1,1,2.5,1.5,4.4L232.8,199.1z"/>
			<path d="M238.6,200.6c1,0,1.7-0.2,2.3-0.6c0.6-0.4,0.8-1,0.8-1.9v-0.8c0-1,0.2-2.1,0.4-3.1c0.2-1,0.8-1.7,1.5-2.5
				c0.6-0.6,1.3-1.3,2.3-1.5c0.8-0.4,1.9-0.6,2.9-0.6c1,0,2.1,0.2,2.9,0.6c0.8,0.4,1.7,0.8,2.1,1.7c0.6,0.6,1,1.5,1.3,2.5
				c0.2,1,0.4,1.9,0.4,3.1c0,2.5-0.6,4.4-1.9,5.9c-1.3,1.5-2.9,2.1-5.2,2.1c-1,0-2.1-0.2-3.1-0.6c-1-0.4-1.9-1-2.3-2.1
				c-0.6,1-1.3,1.9-2.1,2.1c-0.8,0.4-1.7,0.6-2.5,0.6h-0.2c-0.4,0-0.6-0.2-0.6-0.6c0-0.4-0.2-0.8-0.2-1.7c0-0.8,0-1.5,0.2-1.9
				c0.2-0.4,0.4-0.6,0.6-0.6C238.2,200.6,238.6,200.6,238.6,200.6z M251.4,197.7c0-1-0.2-1.7-0.6-2.3c-0.4-0.6-1.3-1-2.3-1
				c-1,0-1.9,0.2-2.3,0.8c-0.4,0.6-0.6,1.5-0.6,2.5c0,1,0.2,1.7,0.8,2.3c0.6,0.6,1.3,0.8,2.1,0.8
				C250.6,200.6,251.4,199.8,251.4,197.7z"/>
			<path d="M286.1,200.6c1.9,0,2.7-0.8,2.7-2.7v-4.8h4.2v4.8c0,1,0.2,1.7,0.8,2.1s1.3,0.6,2.1,0.6h0.8c0.4,0,0.6,0.2,0.6,0.6
				c0.2,0.4,0.2,0.8,0.2,1.7s0,1.5-0.2,1.9c-0.2,0.4-0.4,0.6-0.6,0.6h-1c-1,0-1.9-0.2-2.9-0.4c-0.8-0.4-1.7-1-2.3-2.1
				c-0.6,1-1.5,1.7-2.3,2.1s-1.7,0.4-2.5,0.4h-14c-1,0-2.1-0.2-2.9-0.4c-0.8-0.4-1.5-0.8-2.1-1.5c-0.6-0.6-0.8-1.3-1-2.1
				c-0.2-0.8-0.4-1.7-0.4-2.5v-5.9h4.2v4.8c0,0.8,0.2,1.7,0.6,2.1c0.4,0.4,1.3,0.8,2.5,0.8h13.6V200.6z M278.6,189.7h-4.4v-4h4.4
				V189.7z M284.6,189.7h-4.4v-4h4.4V189.7z"/>
			<path d="M308.9,202.9c-0.8,0.4-1.5,0.8-2.3,1c-0.6,0.2-1.5,0.6-2.3,0.6c-0.8,0.2-1.7,0.2-2.7,0.4c-1,0.2-2.1,0.2-3.3,0.2h-1.5
				c-0.4,0-0.6-0.2-0.6-0.6c0-0.4-0.2-0.8-0.2-1.7s0-1.5,0.2-1.9c0.2-0.4,0.4-0.6,0.6-0.6h1.7c1,0,1.9,0,2.7,0
				c0.8,0,1.7-0.2,2.3-0.2c0.6-0.2,1.3-0.2,1.9-0.4s1.3-0.4,1.9-0.8l5.2-3.1c-0.2-0.4-0.4-0.6-0.6-1c-0.2-0.2-0.4-0.4-0.6-0.6
				c-0.2-0.2-0.6-0.4-1-0.4c-0.4,0-0.8-0.2-1.5-0.2h-8.8l0.2-4.6h9.2c0.8,0,1.5,0.2,2.3,0.4c0.8,0.2,1.5,0.6,2.1,1.3
				c0.6,0.6,1.3,1.5,1.9,2.7c0.6,1,1,2.5,1.5,4.4L308.9,202.9z M309.7,184.9h-4.6v-4.2h4.6V184.9z"/>
			<path d="M327.7,205.2c-0.8,0-1.5,0-2.3-0.2c-0.6-0.2-1.3-0.6-1.9-1c-0.6-0.4-1-1.3-1.3-1.9s-0.4-1.9-0.4-3.1v-19.4h4.2v18.4
				c0,0.8,0.2,1.7,0.6,2.1s1,0.8,1.9,0.8h1c0.6,0,0.8,0.8,0.8,2.3c0,1.7-0.2,2.3-0.8,2.3h-1.9V205.2z"/>
			<path d="M331.4,200.6c1.9,0,2.9-0.8,2.9-2.7v-4.8h4.2v4.8c0,1,0.2,1.7,0.8,2.1c0.6,0.4,1.3,0.6,2.1,0.6c2.1,0,3.1-0.8,3.1-2.7
				v-4.8h4.2v4.8c0,1,0.2,1.7,0.8,2.1c0.4,0.4,1,0.6,1.9,0.6c0.8,0,1.5-0.2,1.9-0.6c0.4-0.4,0.6-1,0.6-2.1v-4.8h4.2v5.2
				c0,2.3-0.6,4-1.7,5.2c-1.3,1.3-2.7,1.7-5,1.7c-1,0-1.9-0.2-2.7-0.4c-0.8-0.4-1.7-1-2.3-2.1c-0.6,1-1.5,1.7-2.3,2.1
				c-0.8,0.4-1.9,0.4-2.7,0.4c-1,0-2.1-0.2-2.9-0.4c-0.8-0.4-1.7-1-2.3-2.1c-0.6,1-1.5,1.7-2.3,2.1c-0.8,0.4-1.7,0.4-2.7,0.4h-1.9
				c-0.4,0-0.6-0.2-0.6-0.6c0-0.4-0.2-0.8-0.2-1.7s0-1.5,0.2-1.9c0.2-0.4,0.4-0.6,0.6-0.6h2.1V200.6z"/>
			<path d="M393.9,205.2c-0.6,0-1,0-1.7-0.2c-0.6-0.2-1-0.6-1.5-1v0.6c0,1.5-0.2,2.9-0.6,4.2c-0.4,1.3-1,2.5-2.1,3.3
				c-0.8,1-1.9,1.7-3.1,2.3c-1.3,0.6-2.7,0.8-4.2,0.8H378c-3.1,0-5.4-1-7.3-2.9c-1.9-1.9-2.5-4.6-2.5-7.9v-7.5h4.2v7.3
				c0,1,0.2,1.9,0.4,2.7c0.2,0.8,0.6,1.5,1,2.1c0.4,0.6,1,1,1.9,1.3c0.8,0.2,1.7,0.4,2.9,0.4h1.9c1.3,0,2.1-0.2,2.9-0.4
				c0.8-0.4,1.5-0.8,2.1-1.5c0.4-0.6,0.8-1.3,1-2.1c0.2-0.8,0.4-1.7,0.4-2.5v-11.1h4.2v5c0,0.8,0.2,1.5,0.8,2.1
				c0.6,0.4,1.3,0.6,2.1,0.6h0.4c0.6,0,0.8,0.8,0.8,2.3c0,1.7-0.2,2.3-0.8,2.3h-0.6V205.2z M381.2,192.5h-4.6v-4.2h4.6V192.5z"/>
			<path d="M398.1,200.6c1.9,0,2.7-0.8,2.7-2.7v-4.8h4.2v5.2c0,2.3-0.6,4-1.7,5.2c-1.3,1.3-2.7,1.7-4.8,1.7h-4.2
				c-0.4,0-0.6-0.2-0.6-0.6c0-0.4-0.2-0.8-0.2-1.7s0-1.5,0.2-1.9c0.2-0.4,0.4-0.6,0.6-0.6h3.8V200.6z M398.5,214h-4.2v-4h4.2V214z
				 M404.6,214h-4.2v-4h4.2V214z"/>
			<path d="M410,205.2v-25.7h4.2v21.1h3.8c1.9,0,2.7-0.8,2.7-2.7v-18.4h4.2v18.4c0,1,0.2,1.7,0.8,2.1c0.6,0.4,1.3,0.6,2.3,0.6h0.6
				c0.6,0,0.8,0.8,0.8,2.3c0,1.7-0.2,2.3-0.8,2.3h-0.8c-1,0-1.9-0.2-2.9-0.4c-0.8-0.4-1.7-1-2.3-2.1c-0.6,1-1.5,1.7-2.3,2.1
				c-0.8,0.4-1.7,0.4-2.5,0.4H410z"/>
			<path d="M432.4,200.6c1.9,0,2.7-0.8,2.7-2.7v-4.8h4.2v5.2c0,2.3-0.6,4-1.7,5.2c-1.3,1.3-2.7,1.7-4.8,1.7h-4.2
				c-0.4,0-0.6-0.2-0.6-0.6c0-0.4-0.2-0.8-0.2-1.7s0-1.5,0.2-1.9c0.2-0.4,0.4-0.6,0.6-0.6h3.8V200.6z M438.2,188.3h-4.6v-4.2h4.6
				V188.3z"/>
			<path d="M444.1,181.4c-0.6,0-1,0-1.3,0.2c-0.2,0.2-0.6,0.4-0.8,1l-0.8,1.9l-2.7-1.3l1.3-2.9c0.2-0.6,0.4-1,0.6-1.5
				c0.2-0.4,0.4-0.6,0.8-0.8c0.2-0.2,0.6-0.4,1-0.4c0.4,0,0.8-0.2,1.5-0.2h8.4l-0.2,4C451.8,181.4,444.1,181.4,444.1,181.4z
				 M444.3,185.8h4.2v19.4h-4.2V185.8z"/>
			<path d="M476.7,205.2c-1.9,0-3.6-0.4-4.6-1.5c-1.3-1-1.9-2.5-1.9-4.4v-2.1c0-0.8,0-1.5,0.2-1.9c0.2-0.6,0.4-1,0.8-1.3h-1
				c-1.3,0-2.3,0.2-2.9,0.8c-0.6,0.6-1,1.3-1,2.5v18.2H462v-18.2c0-1,0.2-1.9,0.4-2.7c0.4-0.8,0.8-1.7,1.5-2.3
				c0.6-0.6,1.5-1.3,2.5-1.7c1-0.4,2.1-0.6,3.6-0.6h7.5c1.3,0,2.1,0.2,2.9,0.4s1.5,0.8,1.9,1.3c0.4,0.6,0.8,1.3,1,1.9
				c0.2,0.6,0.2,1.5,0.2,2.3v3.6c0,1-0.2,2.1-0.6,2.7c-0.4,0.6-0.8,1.5-1.5,1.9c-0.6,0.4-1.5,0.8-2.3,1
				C478.3,205.4,477.7,205.2,476.7,205.2z M477.1,200.6c1,0,1.7-0.2,2.1-0.6c0.4-0.4,0.6-1,0.6-1.7v-1.9c0-0.6-0.2-1.3-0.6-1.7
				c-0.4-0.4-1-0.6-1.9-0.6h-0.8c-0.8,0-1.5,0.2-1.7,0.6c-0.4,0.4-0.6,1-0.6,1.9v1.7c0,0.8,0.2,1.3,0.6,1.7
				C475.2,200.4,476,200.6,477.1,200.6z"/>
			<path d="M493.8,204.6c0,1.5-0.2,2.9-0.8,4.2c-0.4,1.3-1.3,2.5-2.1,3.3c-0.8,1-1.9,1.7-3.1,2.3c-1.3,0.6-2.5,0.8-4,0.8H481
				l-0.2-4.6h1.7c1.3,0,2.3-0.2,3.1-0.4c0.8-0.4,1.7-0.8,2.1-1.5c0.6-0.6,1-1.3,1.3-2.1s0.4-1.5,0.4-2.3v-11.5h4.2v5
				c0,0.8,0.2,1.5,0.8,2.1c0.6,0.4,1.3,0.6,2.1,0.6h0.4c0.6,0,0.8,0.8,0.8,2.3c0,1.7-0.2,2.3-0.8,2.3h-0.4c-0.6,0-1,0-1.7-0.2
				s-1-0.6-1.5-1v0.6H493.8z"/>
			<path d="M503.2,200.6c-1-0.8-1.7-1.7-2.1-2.7c-0.4-0.8-0.6-1.9-0.6-2.9c0-0.8,0.2-1.9,0.4-2.7c0.4-0.8,0.8-1.7,1.5-2.3
				c0.6-0.6,1.5-1.3,2.3-1.7c0.8-0.4,1.9-0.6,3.1-0.6s2.1,0.2,2.9,0.6s1.7,1,2.1,1.7c0.6,0.6,1,1.5,1.3,2.3c0.2,0.8,0.4,1.7,0.4,2.5
				c0,1.3-0.2,2.3-0.6,3.1c-0.4,0.8-1,1.7-1.9,2.5h5.9c0.6,0,0.8,0.8,0.8,2.3c0,1.7-0.2,2.3-0.8,2.3h-4.2c-1.3,0-2.3,0-3.3-0.2
				s-1.9-0.4-2.3-0.6c-0.4,0.2-0.8,0.4-1.5,0.4c-0.6,0.2-1,0.2-1.7,0.2s-1.3,0-1.7,0s-1,0-1.5,0h-4.4c-0.4,0-0.6-0.2-0.6-0.6
				s-0.2-0.8-0.2-1.7s0-1.5,0.2-1.9c0.2-0.4,0.4-0.6,0.6-0.6h5.9V200.6z M507.6,192.7c-0.8,0-1.7,0.2-2.3,0.8
				c-0.6,0.6-0.8,1.5-0.8,2.3s0.4,1.7,1,2.3c0.6,0.6,1.5,1.3,2.3,1.7c0.8-0.4,1.5-1,2.1-1.7c0.6-0.6,0.8-1.5,0.8-2.3
				c0-1-0.2-1.7-0.8-2.3C509.3,192.9,508.6,192.7,507.6,192.7z M510.3,184.9h-4.6v-4.2h4.6V184.9z"/>
			<path d="M521,200.6c1.9,0,2.7-0.8,2.7-2.7v-4.8h4.2v4.8c0,1,0.2,1.7,0.8,2.1c0.6,0.4,1.3,0.6,2.1,0.6h1c0.6,0,1,0.8,1,2.3
				c0,1.7-0.4,2.3-1,2.3h-1.3c-1,0-2.1-0.2-2.9-0.4c-0.8-0.4-1.7-1-2.3-2.1c-0.6,1-1.5,1.7-2.3,2.1c-0.8,0.4-1.7,0.4-2.5,0.4h-2.9
				c-0.4,0-0.6-0.2-0.6-0.6c0-0.4-0.2-0.8-0.2-1.7s0-1.5,0.2-1.9c0.2-0.4,0.4-0.6,0.6-0.6h3.3V200.6z M524.5,188.3h-4.2v-4h4.4v4
				H524.5z M530.6,188.3h-4.4v-4h4.4V188.3z"/>
			<path d="M533.1,200.6c1.9,0,2.9-0.8,2.9-2.7v-18.4h4.2v18.4c0,1,0.2,1.7,0.8,2.1s1.3,0.6,2.1,0.6h0.6c0.6,0,0.8,0.8,0.8,2.3
				c0,1.7-0.2,2.3-0.8,2.3h-0.8c-1,0-1.9-0.2-2.9-0.4c-0.8-0.4-1.7-1-2.3-2.1c-0.6,1-1.5,1.7-2.1,2.1c-0.8,0.4-1.7,0.4-2.5,0.4h-1
				c-0.4,0-0.6-0.2-0.6-0.6c0-0.4-0.2-0.8-0.2-1.7s0-1.5,0.2-1.9c0.2-0.4,0.4-0.6,0.6-0.6h1V200.6z"/>
			<path d="M547.7,200.6c1.9,0,2.7-0.8,2.7-2.7v-4.8h4.2v5.2c0,2.3-0.6,4-1.7,5.2c-1.3,1.3-2.7,1.7-4.8,1.7h-4.2
				c-0.4,0-0.6-0.2-0.6-0.6c0-0.4-0.2-0.8-0.2-1.7s0-1.5,0.2-1.9c0.2-0.4,0.4-0.6,0.6-0.6h3.8V200.6z M548.1,214h-4.4v-4h4.4V214z
				 M551.3,219.8h-4.4v-4h4.4V219.8z M554.2,214h-4.4v-4h4.4V214z"/>
		</g>
	</g>
</g>
</svg>
