<svg xmlns="http://www.w3.org/2000/svg" width="81.674" height="63.247" viewBox="0 0 81.674 63.247">
  <g id="download" transform="translate(-100 -5)">
    <g id="Group_3283" data-name="Group 3283" transform="translate(126 5)">
      <path id="Path_733" data-name="Path 733" d="M.806,0H9.2a.8.8,0,0,1,.573,1.356L1.4,9.76A.8.8,0,0,1,.027,9.2L0,.8A.8.8,0,0,1,.806,0m28.4,30H20.8a.8.8,0,0,1-.574-1.356l8.368-8.4a.8.8,0,0,1,1.373.556L30,29.2a.785.785,0,0,1-.792.8M1.248,22.73,22.735,1.248a4.253,4.253,0,0,1,6.016,6.015L7.265,28.752A4.256,4.256,0,1,1,1.248,22.73Z" fill="#ffd23f" fill-rule="evenodd"/>
    </g>
    <path id="Path_734" data-name="Path 734" d="M79.794,11.369a1.881,1.881,0,0,1,1.881,1.881V23.366a1.881,1.881,0,1,1-3.761,0V13.25A1.881,1.881,0,0,1,79.794,11.369ZM16.077,2.654q.127,10.517.127,10.519V17.06a8.151,8.151,0,0,1-8.1,8.182A8.151,8.151,0,0,1,0,17.06V13.393a1.881,1.881,0,1,1,3.761,0V17.06A4.386,4.386,0,0,0,8.1,21.48a4.386,4.386,0,0,0,4.34-4.42V13.272L12.316,2.7a1.881,1.881,0,1,1,3.761-.045ZM54.2,11.369h8.153a1.881,1.881,0,0,1,0,3.762H54.2v1.611a8.5,8.5,0,0,1-17,0V13.393a1.881,1.881,0,1,1,3.761,0v3.349a4.738,4.738,0,0,0,9.476,0V10.517a1.881,1.881,0,0,1,3.761,0Zm-30.831,0h6.82a1.881,1.881,0,0,1,0,3.762H21.511a1.906,1.906,0,0,1-.377-.038c-.033-.007-.063-.021-.1-.03a1.93,1.93,0,0,1-.256-.08c-.04-.017-.076-.042-.114-.062a1.894,1.894,0,0,1-.2-.11c-.038-.025-.07-.058-.105-.086a2.076,2.076,0,0,1-.173-.142c-.032-.032-.057-.069-.086-.1a1.832,1.832,0,0,1-.144-.174c-.026-.038-.043-.08-.066-.12a1.836,1.836,0,0,1-.108-.2c-.019-.046-.03-.1-.046-.143a1.713,1.713,0,0,1-.065-.208c-.011-.053-.012-.11-.019-.164a1.935,1.935,0,0,1-.022-.2L19.5,2.7a1.881,1.881,0,1,1,3.761-.045Zm48.1,0a1.881,1.881,0,0,1,1.881,1.881V23.366a1.881,1.881,0,1,1-3.761,0V13.25A1.881,1.881,0,0,1,71.465,11.369ZM45.7,15.017a1.767,1.767,0,0,1-1.767-1.767A1.762,1.762,0,0,1,44.453,12a1.824,1.824,0,0,1,2.5,0,1.781,1.781,0,0,1,.515,1.247A1.758,1.758,0,0,1,45.7,15.017Zm34.09-5.909a1.782,1.782,0,0,1-1.247-.515,1.811,1.811,0,0,1-.521-1.253,1.775,1.775,0,0,1,2.116-1.733,1.7,1.7,0,0,1,.332.1,2.2,2.2,0,0,1,.3.16,2.019,2.019,0,0,1,.268.223,1.773,1.773,0,0,1,0,2.5,1.627,1.627,0,0,1-.268.217,2.245,2.245,0,0,1-.3.166,2.4,2.4,0,0,1-.332.1A1.8,1.8,0,0,1,79.791,9.108Zm-52.106,13.5a1.7,1.7,0,0,1,.1.332,1.755,1.755,0,0,1,.04.343,1.813,1.813,0,0,1-.04.349,1.642,1.642,0,0,1-.1.326,2.019,2.019,0,0,1-.16.309,2.466,2.466,0,0,1-.224.269,1.655,1.655,0,0,1-.269.217,1.607,1.607,0,0,1-.635.263,1.742,1.742,0,0,1-.343.034,1.8,1.8,0,0,1-.349-.034,2.131,2.131,0,0,1-.325-.1,1.974,1.974,0,0,1-.309-.166,1.685,1.685,0,0,1-.269-.217,1.943,1.943,0,0,1-.217-.269,2.05,2.05,0,0,1-.166-.309,2.2,2.2,0,0,1-.1-.326,1.8,1.8,0,0,1-.034-.349,1.745,1.745,0,0,1,.034-.343,2.276,2.276,0,0,1,.1-.332,2.3,2.3,0,0,1,.166-.3,1.655,1.655,0,0,1,.217-.269,2.107,2.107,0,0,1,.269-.223,2.193,2.193,0,0,1,.3-.16,1.859,1.859,0,0,1,.332-.1,1.762,1.762,0,0,1,.692,0,1.7,1.7,0,0,1,.332.1,2.167,2.167,0,0,1,.3.16,2.062,2.062,0,0,1,.269.223,2.021,2.021,0,0,1,.224.269A2.259,2.259,0,0,1,27.684,22.607Zm30.331-4.365h5.058a1.473,1.473,0,0,1,0,2.945H58.016a1.473,1.473,0,0,1,0-2.945Zm-29.434-.59a1.473,1.473,0,0,1,0,2.945H23.524a1.473,1.473,0,0,1,0-2.945Z" transform="translate(100 43)" fill="#303030" fill-rule="evenodd"/>
  </g>
</svg>
